<svg id="Layer_1" data-name="Layer 1" xmlns="http://www.w3.org/2000/svg" width="500" height="500" viewBox="0 0 500 500"><title>Close Icon</title>
<path style="fill:#a7a7a7;" d="M440.9189,470.4189a29.3033,29.3033,0,0,1-20.8593-8.6406L38.2217,79.9409A29.5,29.5,0,1,1,79.9409,38.2217L461.7783,420.06a29.5,29.5,0,0,1-20.8594,50.3593Z"/>
<path style="fill:#a7a7a7;" d="M59.0812,30.0812a28.81,28.81,0,0,1,20.506,8.4939L461.4249,420.4128a29,29,0,1,1-41.0121,41.0121L38.5751,79.5872a29,29,0,0,1,20.5061-49.506m0-1A29.9063,29.9063,0,0,0,37.868,37.8679h0a30,30,0,0,0,0,42.4264L419.7057,462.132a30,30,0,0,0,42.4263,0h0a30,30,0,0,0,0-42.4263L80.2943,37.8679a29.9061,29.9061,0,0,0-21.2131-8.7867Z"/>
<path style="fill:#a7a7a7;" d="M59.0811,470.4189A29.5,29.5,0,0,1,38.2217,420.06L420.06,38.2217a29.5,29.5,0,1,1,41.7187,41.7192L79.9409,461.7783A29.3053,29.3053,0,0,1,59.0811,470.4189Z"/>
<path style="fill:#a7a7a7;" d="M440.9188,30.0812a29,29,0,0,1,20.5061,49.506L79.5872,461.4249a29,29,0,1,1-41.0121-41.0121L420.4128,38.5751a28.81,28.81,0,0,1,20.506-8.4939m0-1a29.9059,29.9059,0,0,0-21.2131,8.7867L37.8679,419.7057a30,30,0,0,0,0,42.4263h0a30,30,0,0,0,42.4263,0L462.132,80.2943a30,30,0,0,0,0-42.4263h0a29.9063,29.9063,0,0,0-21.2132-8.7867Z"/></svg>