<svg xmlns="http://www.w3.org/2000/svg" width="352.0078" height="292.83" viewBox="0 0 352.0078 292.83"><defs><style>.cls-1{fill:#fff;}</style></defs><title>Mute_1</title><g id="Layer_2" data-name="Layer 2"><g id="Mute"><path class="cls-1" d="M0,82.4112.77,206.3573a18.5093,18.5093,0,0,0,18.5943,18.3972c13.9278-.0645,30.478-.14,38.2412-.1737l11.8358-.0509h0l62.8408,62.8407c11.6621,11.6622,31.6026,3.4026,31.6026-13.09V18.549c0-16.1518-19.2383-24.5574-31.09-13.5837L74.74,58.72a18.5125,18.5125,0,0,1-12.52,4.9287l-43.765.1354A18.5124,18.5124,0,0,0,0,82.4112Z"/><rect class="cls-1" x="258.2603" y="42.7083" width="31.5815" height="207.4135" rx="15.7907" transform="translate(-23.2634 236.6673) rotate(-45)"/><rect class="cls-1" x="258.2603" y="42.7083" width="31.5815" height="207.4135" rx="15.7907" transform="translate(183.7987 -150.8994) rotate(45)"/></g></g></svg>
