<svg xmlns="http://www.w3.org/2000/svg" xmlns:xlink="http://www.w3.org/1999/xlink" width="352.885" height="292.83" viewBox="0 0 352.885 292.83"><defs><style>.cls-1,.cls-4,.cls-5,.cls-6{fill:none;}.cls-2{fill:#fff;}.cls-3{clip-path:url(#clip-path);}.cls-4,.cls-5,.cls-6{stroke:#fff;stroke-miterlimit:10;}.cls-4{stroke-width:20px;}.cls-5{stroke-width:25px;}.cls-6{stroke-width:30px;}</style><clipPath id="clip-path" transform="translate(0 -17.921)"><path class="cls-1" d="M149.7834,166.7624l196.51,166.7625C353.3482,323.52,397.3706,258.9566,394.7748,158,392.4539,67.7347,354.4911,11.5915,346.2933,0Z"/></clipPath></defs><title>sound</title><g id="Layer_2" data-name="Layer 2"><g id="Layer_1-2" data-name="Layer 1"><path class="cls-2" d="M0,100.3323l.77,123.946a18.5093,18.5093,0,0,0,18.5943,18.3972c13.9278-.0645,30.478-.14,38.2412-.1737l11.8358-.0509h0l62.8408,62.8407c11.6621,11.6622,31.6026,3.4026,31.6026-13.09V36.47c0-16.1518-19.2383-24.5573-31.09-13.5836L74.74,76.6408A18.5125,18.5125,0,0,1,62.22,81.57l-43.765.1355A18.5123,18.5123,0,0,0,0,100.3323Z" transform="translate(0 -17.921)"/><g class="cls-3"><circle class="cls-4" cx="170.885" cy="148.8414" r="51"/><circle class="cls-5" cx="194.385" cy="149.3414" r="83"/><circle class="cls-6" cx="212.385" cy="149.3414" r="125.5"/></g></g></g></svg>