<svg id="Layer_1" data-name="Layer 1" xmlns="http://www.w3.org/2000/svg" width="265.5132" height="93.8201" viewBox="0 0 265.5132 93.8201"><defs><style>.cls-1{fill:#ff849c;}</style></defs><title>Blobby Button</title><path class="cls-1" d="M249.5319,93.82H81.8085c-12.2553,0-24.63-1.7035-36.7659,0H14.4681a14.7791,14.7791,0,0,1-10.23-4.2376A14.4228,14.4228,0,0,1,0,79.352V15.2882a15.8308,15.8308,0,0,1,4.2376-10.23A14.4228,14.4228,0,0,1,14.4681.82h22.367c.9939,0,17.4907.9159,50.4979,2.5154,9.9988.4846,20.9338.6185,42.8037.8863,31.1355.3813,46.9343.55,58.2582-.5288C198.4828,2.732,208.62,2.1953,218.66.82a142.9505,142.9505,0,0,1,30.8724,0c2.1959.2369,6.8364.8435,10.2305,4.2376A14.4228,14.4228,0,0,1,264,15.2882c.8486,8.9621,1.4085,18.6687,1.5,29.0319A339.8468,339.8468,0,0,1,264,79.352C264,80.3156,263.9037,85.4411,249.5319,93.82Z"/></svg>